<svg width="151" height="40" fill="none" xmlns="http://www.w3.org/2000/svg">
  <path d="M60.02 20c0 11.046-8.958 20-20.007 20-11.05 0-20.006-8.954-20.006-20S28.964 0 40.013 0C51.063 0 60.02 8.954 60.02 20Z" fill="#FFFADC" />
  <path d="m14.054 31.111-1.38-4.531H5.73l-1.38 4.531H0l6.721-19.115h4.937l6.746 19.115h-4.35Zm-2.344-7.917a3817.81 3817.81 0 0 1-2.163-6.966 21.9 21.9 0 0 1-.338-1.276c-.287 1.111-1.107 3.859-2.462 8.242h4.963ZM24.852 20.525h1.302c1.277 0 2.219-.212 2.827-.638.608-.425.912-1.094.912-2.005 0-.903-.313-1.545-.938-1.927-.617-.382-1.576-.573-2.879-.573h-1.224v5.143Zm0 3.281v7.305h-4.038V12.075h5.549c2.588 0 4.502.473 5.744 1.419 1.242.937 1.862 2.365 1.862 4.284 0 1.12-.308 2.118-.924 2.995-.617.868-1.49 1.549-2.618 2.044l5.6 8.294h-4.48L27 23.806h-2.15ZM37.551 29.25c0-.409.057-.752.17-1.03.121-.286.286-.516.495-.69.208-.173.451-.3.73-.377a3.31 3.31 0 0 1 .898-.117c.304 0 .59.039.86.117.277.078.52.204.729.377.208.174.373.404.495.69.121.278.182.621.182 1.03 0 .39-.06.724-.182 1.002a1.927 1.927 0 0 1-.495.69 1.855 1.855 0 0 1-.73.39c-.269.087-.555.13-.86.13-.32 0-.62-.043-.898-.13a1.856 1.856 0 0 1-.73-.39 1.928 1.928 0 0 1-.494-.69c-.113-.278-.17-.612-.17-1.003ZM53.377 31.111h-4.038V15.434h-5.17v-3.36h14.379v3.36h-5.171v15.677Z" fill="#000" />
  <path d="m70.414 31.111-.769-1.98h-.104c-.669.843-1.359 1.429-2.071 1.759-.703.32-1.624.482-2.761.482-1.398 0-2.501-.4-3.309-1.198-.798-.799-1.198-1.936-1.198-3.412 0-1.545.538-2.682 1.615-3.411 1.086-.738 2.718-1.146 4.898-1.224l2.526-.078v-.638c0-1.476-.755-2.214-2.266-2.214-1.163 0-2.531.352-4.103 1.055l-1.315-2.683c1.675-.876 3.534-1.315 5.574-1.315 1.954 0 3.452.426 4.494 1.276 1.042.851 1.563 2.144 1.563 3.88v9.701h-2.774Zm-1.173-6.745-1.537.052c-1.154.035-2.014.244-2.578.625-.565.382-.847.964-.847 1.745 0 1.12.642 1.68 1.928 1.68.92 0 1.654-.265 2.2-.794.557-.53.834-1.233.834-2.11v-1.198ZM90.733 31.111H86.76v-8.503c0-1.05-.187-1.835-.56-2.356-.373-.53-.968-.794-1.784-.794-1.112 0-1.915.373-2.41 1.12-.495.737-.742 1.965-.742 3.684v6.85H77.29V16.553h3.035l.534 1.862h.221a4.163 4.163 0 0 1 1.824-1.589c.781-.364 1.667-.547 2.657-.547 1.693 0 2.978.46 3.855 1.38.877.912 1.316 2.232 1.316 3.959v9.492ZM98.287 31.111 92.74 16.554h4.155l2.813 8.294c.287.903.473 1.897.56 2.982h.104c.053-.981.248-1.975.587-2.982l2.8-8.294h4.155l-5.549 14.557h-4.077ZM116.041 19.106c-.843 0-1.503.269-1.98.807-.478.53-.751 1.285-.821 2.266h5.575c-.017-.981-.274-1.736-.769-2.266-.494-.538-1.163-.807-2.005-.807Zm.56 12.265c-2.345 0-4.177-.646-5.497-1.94-1.32-1.293-1.98-3.125-1.98-5.494 0-2.44.608-4.323 1.824-5.651 1.224-1.337 2.913-2.006 5.067-2.006 2.058 0 3.66.586 4.806 1.758 1.146 1.172 1.719 2.791 1.719 4.857v1.927h-9.391c.043 1.129.378 2.01 1.003 2.643.625.634 1.502.95 2.631.95.877 0 1.706-.09 2.488-.273a12.466 12.466 0 0 0 2.449-.872v3.073a9.143 9.143 0 0 1-2.228.768c-.79.174-1.754.26-2.891.26ZM131.801 19.106c-.842 0-1.502.269-1.98.807-.477.53-.751 1.285-.82 2.266h5.574c-.017-.981-.273-1.736-.768-2.266-.495-.538-1.164-.807-2.006-.807Zm.56 12.265c-2.344 0-4.177-.646-5.497-1.94-1.319-1.293-1.979-3.125-1.979-5.494 0-2.44.608-4.323 1.823-5.651 1.225-1.337 2.913-2.006 5.067-2.006 2.058 0 3.66.586 4.806 1.758 1.146 1.172 1.72 2.791 1.72 4.857v1.927h-9.392c.044 1.129.378 2.01 1.003 2.643.626.634 1.503.95 2.631.95.877 0 1.707-.09 2.488-.273a12.443 12.443 0 0 0 2.449-.872v3.073a9.136 9.136 0 0 1-2.227.768c-.791.174-1.754.26-2.892.26ZM149.658 16.28c.539 0 .986.04 1.342.118l-.3 3.724a4.55 4.55 0 0 0-1.172-.13c-1.268 0-2.258.325-2.97.976-.703.65-1.055 1.562-1.055 2.734v7.41h-3.972V16.553h3.009l.586 2.448h.195a5.437 5.437 0 0 1 1.824-1.966 4.512 4.512 0 0 1 2.513-.756Z" fill="#939393" />
</svg>